<?xml version="1.0" encoding="UTF-8"?>
<svg version="1.1" xmlns="http://www.w3.org/2000/svg" xmlns:xlink="http://www.w3.org/1999/xlink" x="0px" y="0px" viewBox="0 0 1000 1000" enable-background="new 0 0 1000 1000" xml:space="preserve">
  <g>
    <g transform="translate(0.000000,511.000000) scale(0.100000,-0.100000)">
      <path fill="#12bcff" d="M4831.5,4918l-137.8-91.9v-623.6V3579l-433.2,433.2L3825,4445.4l-140-24.1c-280.1-48.1-249.4-21.9-282.2-234.1l-26.3-186l658.6-660.8l658.6-658.6V1679.8c0-555.8-8.8-999.9-19.7-999.9c-15.3,0-1704.4,993.3-1726.3,1017.4c-4.4,2.2-109.4,407-234.1,897.1c-124.7,490.1-229.7,892.7-234.1,897.1c-4.4,4.4-70,30.6-148.8,61.3c-78.8,30.6-157.5,61.3-175,67.8c-24.1,10.9-72.2-30.6-157.5-135.6l-124.7-151l151-584.2c113.8-437.6,142.2-582,118.1-573.3c-17.5,6.6-258.2,146.6-531.7,308.5l-501,297.6l-166.3-83.1l-166.3-81v-124.7c0-260.4-30.6-227.5,549.2-573.2c374.1-221,512-312.9,485.7-323.8c-21.9-6.6-286.6-76.6-590.8-153.2l-551.4-140l-70-181.6c-41.6-105-61.3-188.2-50.3-199.1c159.7-135.7,269.1-221,286.6-221c13.1,0,409.2,98.5,883.9,221c472.6,120.3,879.6,216.6,903.6,212.2c48.1-10.9,1741.6-1004.3,1741.6-1024c0-6.5-391.6-242.9-870.8-527.3L2626-930.4l-754.9,192.6c-415.7,107.2-820.5,210-901.4,229.7L823.2-471L696.2-578.1c-70-59.1-135.6-113.8-146.6-122.5c-10.9-11,8.8-94.1,50.3-199.1l70-181.6l551.4-140c304.1-76.6,568.9-146.6,590.8-153.2c26.3-10.9-109.4-102.8-485.7-323.8c-579.8-345.7-549.2-312.9-549.2-573.3v-124.7l166.3-80.9l166.3-83.2l501,297.6c273.5,161.9,514.2,301.9,531.7,308.5c24.1,8.8-6.6-135.7-118.1-573.3l-151-584.2l124.7-151c85.3-105,133.5-146.6,157.5-135.7c17.5,6.6,96.3,37.2,175,67.8c78.8,30.6,144.4,56.9,148.8,61.3c4.4,4.4,109.4,407,234.1,897.1c124.7,490.1,229.7,894.9,234.1,897.1c21.9,21.9,1713.2,1017.4,1728.5,1017.4c8.8,0,17.5-450.7,17.5-999.9v-1002.1l-658.6-658.6l-658.6-660.8l26.3-186c32.8-212.2,2.2-186,282.2-234.1l140-24l435.4,433.2l433.2,433.2v-623.6V-4604l142.2-94.1c78.8-50.3,151-91.9,164.1-91.9s85.3,41.6,164.1,94.1l142.2,91.9v623.6v623.6l433.2-433.2l435.4-433.2l140,24c280.1,48.1,249.4,21.9,282.3,234.1l26.3,186l-658.6,660.8l-658.6,658.6v1002.1c0,549.2,8.7,999.9,17.5,999.9c15.3,0,1706.6-995.5,1728.5-1015.2c2.2-4.4,98.5-374.1,214.4-824.9c113.8-450.7,216.6-853.3,229.7-897.1c17.5-74.4,32.8-85.3,168.5-135.7c81-30.6,161.9-61.3,179.4-67.8c24.1-10.9,72.2,32.8,157.5,135.7l122.5,148.8l-148.8,577.6c-81,319.4-144.4,584.2-140,588.6c4.4,4.4,242.9-131.3,529.5-302l525.1-310.7l166.3,83.2l168.5,83.1l-6.6,186l-6.6,186l-503.2,299.7c-275.7,164.1-516.3,308.5-533.9,319.4c-21.9,10.9,166.3,67.8,562.3,170.7l593,151l70,181.6c41.6,105,61.3,188.1,50.3,199.1c-172.9,148.8-271.3,221-295.4,221c-17.5-2.2-424.5-102.9-903.7-227.6l-873-225.4l-873,516.3c-479.2,284.4-870.8,520.7-870.8,527.3c0,6.6,391.6,242.9,870.8,527.3l868.6,514.2L8128.8,960c415.7-107.2,820.5-210,901.5-229.7l146.6-37.2l126.9,107.2c70,59.1,135.7,113.8,146.6,122.5c10.9,10.9-8.8,94.1-50.3,199.1l-70,181.6l-593,151c-391.6,100.6-584.2,159.7-562.3,170.7c17.5,10.9,258.2,155.3,533.9,319.4l503.2,299.8l6.6,186l6.6,186l-168.5,83.1l-166.3,83.1l-525.1-310.7c-286.6-170.7-525.1-306.3-529.5-301.9c-4.4,4.4,59.1,269.1,140,588.6l148.8,577.6l-122.5,148.8c-85.3,105-133.5,146.6-157.5,135.6c-17.5-6.6-96.3-37.2-175-67.8c-78.8-30.6-144.4-56.9-148.8-61.3c-4.4-4.4-109.4-407-234.1-897.1c-126.9-492.3-231.9-894.9-236.3-899.3c-21.9-21.9-1711-1015.2-1726.3-1015.2c-8.8,0-17.5,450.7-17.5,999.9v1002.1l658.6,658.6l658.6,660.8l-26.3,186c-32.8,212.2-2.2,186-282.3,234.1l-140,24.1l-435.4-433.2L5306.3,3579v623.6v623.6l-142.2,94.1c-78.8,50.3-153.2,91.9-168.5,89.7C4980.3,5009.9,4905.9,4968.3,4831.5,4918z" />
    </g>
  </g>
</svg>
