<?xml version="1.0" encoding="UTF-8"?>
<svg version="1.1" xmlns="http://www.w3.org/2000/svg" xmlns:xlink="http://www.w3.org/1999/xlink" x="0px" y="0px" viewBox="0 0 1000 1000" enable-background="new 0 0 1000 1000" xml:space="preserve">
  <g>
    <g transform="translate(0.000000,511.000000) scale(0.100000,-0.100000)">
      <path fill="#999" d="M4927.2,3386.7c-975.7-61.3-1890-680.8-2311.5-1563.4l-81.1-172.2l-168.2-13.8c-643.2-51.5-1153.8-288.9-1591.2-740.2C464.4,576.4,266.5,230.1,153.7-187.5c-47.5-176.1-53.4-227.6-53.4-570c-2-292.9,5.9-407.7,31.7-518.5c231.5-949.9,948-1650.5,1899.9-1860.3c154.4-33.7,332.5-35.6,3142.7-35.6H8153l176.1,45.5c593.7,150.4,1088.5,546.2,1355.6,1084.5c108.8,217.7,156.4,378,195.9,635.3c140.5,953.9-502.7,1913.7-1470.4,2192.8c-97,27.7-253.3,57.4-346.3,65.3l-168.2,13.9l-5.9,59.4c-4,33.6-23.8,144.5-45.5,249.4c-215.7,1080.6-1058.8,1935.5-2137.4,2165.1C5515,3380.8,5174.6,3402.5,4927.2,3386.7z M5600.1,3032.5c496.7-93,987.6-356.2,1310.2-700.6c393.8-419.6,601.6-904.4,657-1523.9c21.8-261.2,21.8-259.3,352.3-275.1c514.6-25.7,884.6-188,1207.2-534.3c653.1-698.6,569.9-1882.1-172.2-2475.8c-188-150.4-459.1-279.1-692.7-328.5c-176.1-39.6-245.4-39.6-3162.5-35.6l-2982.4,5.9l-188,55.4c-249.4,73.2-514.6,203.9-710.5,350.3C232.9-1685.6,132-171.6,1010.6,705.1c376,378,849,575.9,1422.9,599.7c152.4,5.9,290.9,17.8,308.7,27.7c17.8,7.9,65.3,99,104.9,199.9c330.5,831.2,1054.8,1397.2,1941.4,1517.9C4956.9,3074,5435.8,3062.1,5600.1,3032.5z" />
      <path fill="#777" d="M4863.9,1500.7c-320.6-73.2-639.2-320.6-793.6-619.5c-79.2-154.4-142.5-356.2-142.5-465.1v-55.4H4094h164.3l11.9,116.8c43.5,413.6,395.8,714.4,835.2,714.4c354.3,0,629.4-172.2,775.8-486.8c51.5-106.9,55.4-136.6,55.4-356.2c0-235.5,0-239.5-73.2-387.9c-89.1-180.1-203.9-292.9-387.9-378c-114.8-53.4-158.3-63.3-334.5-69.3l-203.9-7.9v-502.7v-502.7h168.2h168.2v342.4v340.4l104.9,25.7c378,87.1,724.3,417.6,856.9,815.4c57.4,168.2,51.5,480.9-9.9,670.9c-116.7,356.2-413.6,653.1-771.8,773.8C5289.4,1524.4,5028.1,1538.3,4863.9,1500.7z" />
      <path fill="#777" d="M4937.1-1836v-158.3h168.2h168.2v158.3v158.3h-168.2h-168.2V-1836z" />
    </g>
  </g>
</svg>
